# xmcd CD database file
#
# Track frame offsets:
#	150
#	16695
#	26584
#	46897
#	59770
#	71571
#	86580
#	97717
#	126802
#	141715
#	166404
#	178145
#
# Disc length: 2690 seconds
#
# Revision: 0
# Processed by: cddbd v1.5.2PL0 Copyright (c) Steve Scherf et al.
# Submitted via: CDex 1.51
#
DISCID=a20a800c
DTITLE=The Witch Doctors - I Ain't Got No Job
DYEAR=2004
DGENRE=Blues
TTITLE0=Global Economy Blues
TTITLE1=Soul Fingers
TTITLE2=Drunk Girl
TTITLE3=Ain't got You
TTITLE4=Barroom Science
TTITLE5=Nobody's Fault But Mine
TTITLE6=Guilty Of Love
TTITLE7=Blood Stains On The Wall
TTITLE8=I've Been Abused
TTITLE9=Temperature
TTITLE10=Cadillac Daddy
TTITLE11=I'll Set You Free
EXTD=YEAR: 2004
EXTT0=
EXTT1=
EXTT2=
EXTT3=
EXTT4=
EXTT5=
EXTT6=
EXTT7=
EXTT8=
EXTT9=
EXTT10=
EXTT11=
PLAYORDER=
